<?xml version="1.0" standalone="no"?>
<!DOCTYPE svg PUBLIC "-//W3C//DTD SVG 20010904//EN"
 "http://www.w3.org/TR/2001/REC-SVG-20010904/DTD/svg10.dtd">
<svg version="1.0" xmlns="http://www.w3.org/2000/svg"
 width="357.000000pt" height="357.000000pt" viewBox="0 0 357.000000 357.000000"
 preserveAspectRatio="xMidYMid meet">
<metadata>
Created by potrace 1.11, written by Peter Selinger 2001-2013
</metadata>
<g transform="translate(0.000000,357.000000) scale(0.100000,-0.100000)"
fill="#000000" stroke="none">
<path d="M1769 3554 c-238 -36 -464 -131 -646 -270 -153 -117 -311 -312 -403
-493 -87 -174 -154 -399 -175 -589 -6 -51 -38 -160 -60 -202 -19 -36 -82 -96
-122 -115 -18 -9 -34 -19 -37 -23 -2 -4 15 -20 39 -37 75 -51 152 -194 169
-313 3 -20 10 -68 16 -107 17 -125 21 -148 46 -255 103 -441 316 -759 639
-957 153 -94 341 -159 518 -181 77 -9 378 -9 432 0 22 4 58 10 80 13 76 13
211 56 293 95 337 159 557 474 547 780 -5 141 -44 219 -131 259 -92 44 -253
14 -247 -45 0 -11 9 -39 18 -64 24 -60 25 -214 2 -297 -53 -199 -190 -346
-376 -403 -85 -27 -101 -30 -212 -37 -205 -12 -392 60 -499 194 -39 48 -86
135 -94 173 -3 14 -11 52 -18 85 -19 85 -17 773 1 830 17 50 55 124 78 150 22
25 122 100 143 107 10 3 0 13 -30 28 -70 36 -153 125 -180 195 -23 59 -23 68
-23 400 0 361 5 406 55 525 63 149 189 252 345 285 101 22 278 8 380 -29 138
-49 258 -174 278 -288 17 -96 5 -139 -61 -202 -61 -59 -137 -88 -219 -84 -56
3 -60 2 -63 -20 -6 -40 19 -82 70 -123 59 -47 108 -62 176 -58 48 4 51 3 54
-21 5 -43 -10 -120 -32 -163 -27 -52 -17 -59 72 -54 90 6 177 47 250 120 31
31 60 66 63 78 5 16 12 19 28 14 49 -17 162 -14 203 4 45 20 114 79 114 97 0
7 -16 21 -35 32 -44 26 -76 91 -104 207 -25 103 -63 210 -99 275 -142 260
-389 427 -717 484 -102 18 -410 18 -526 0z m-711 -700 c10 -19 4 -53 -34 -182
-74 -251 -99 -463 -98 -852 0 -289 12 -517 34 -635 5 -27 12 -66 15 -85 12
-73 38 -164 71 -246 41 -101 50 -157 27 -176 -13 -10 -19 -8 -40 17 -66 82
-156 313 -192 495 -6 30 -13 66 -16 80 -3 14 -10 52 -15 85 -6 33 -12 71 -14
85 -11 61 -26 170 -32 230 -10 96 -24 124 -85 158 l-52 30 39 20 c73 37 85 60
99 173 20 158 71 404 110 524 38 116 138 295 166 295 4 0 12 -7 17 -16z"/>
</g>
</svg>
